<svg xmlns="http://www.w3.org/2000/svg" width="882.207" height="247.523" viewBox="0 0 882.207 247.523">
  <g id="SecretWaifu_Logo_White" data-name="SecretWaifu Logo White" transform="translate(-432 -311.477)">
    <g id="Layer_x0020_1" transform="translate(431.99 311.501)">
      <g id="_2091141225936" transform="translate(0.01 -0.024)">
        <circle id="Ellipse_1" data-name="Ellipse 1" cx="113.391" cy="113.391" r="113.391" transform="translate(2.997 20.741)" fill="#f60"/>
        <path id="Path_35" data-name="Path 35" d="M1910.986,1922.23l-2.127-1.381c2.7-16.562.183-24.257-8-38.077a74.355,74.355,0,0,0,.407-9.161c12.516,13.131,15.154,31.534,9.718,48.62Z" transform="translate(-1730.267 -1705.46)" fill="#fbddc5" fill-rule="evenodd"/>
        <path id="Path_36" data-name="Path 36" d="M1992.117,2109.97l-2.127-1.381a58.84,58.84,0,0,0,.83-15.532c1.7-3.142,2.221-7.793,2.159-13.2a52.258,52.258,0,0,1-.862,30.109Z" transform="translate(-1811.398 -1893.2)" fill="#f8bca0" fill-rule="evenodd"/>
        <path id="Path_37" data-name="Path 37" d="M1915.095,1922.2l-.431-.279a50.118,50.118,0,0,0-9.179-46.521v-1.667l0-.025v-.05l0-.025c12.468,13.081,15.133,31.394,9.779,48.424a1.445,1.445,0,0,1-.138.145Z" transform="translate(-1734.454 -1705.477)" fill="#f8bca0" fill-rule="evenodd"/>
        <path id="Path_38" data-name="Path 38" d="M1572.071,1661.847a66.305,66.305,0,0,1,6.137,7.209c4.766,6.858,9.021,13.2,14.477,19.866,4.3,5.252,10.6,12.441,14.975,15.747,4.121-18.017-3.842-33.353-15.079-43.229a21.633,21.633,0,0,1,5.894,3.452l1.984-7.7c-1.461-1.624-14.8-18.317-15.77-19.431-1.522-.079-9.667,1.411-12.718,1.716,4.143,1.446,3.182,2.849,3.249,7.251,2.092,1,5.2-.218,5.358,3.417.065,1.535-1.367,5.121-1.776,6.9-.535,2.33-1.771,2.432-4.657,4.039a7.135,7.135,0,0,1-2.074.77Z" transform="translate(-1430.894 -1490.773)" fill="#fbddc5" fill-rule="evenodd"/>
        <path id="Path_39" data-name="Path 39" d="M1775.9,2174.19q1.171,1.5,2.413,3.023c1.2,1.466,2.555,3.081,3.981,4.722a6.838,6.838,0,0,0-6.394-7.745Z" transform="translate(-1616.522 -1979.064)" fill="#fbc2a5" fill-rule="evenodd"/>
        <path id="Path_40" data-name="Path 40" d="M1945.03,2200.466c.775.7,1.517,1.318,2.209,1.842a41.563,41.563,0,0,0,.255-17.848C1947.98,2190.521,1947.266,2195.715,1945.03,2200.466Z" transform="translate(-1770.473 -1988.413)" fill="#f8bca0" fill-rule="evenodd"/>
        <path id="Path_41" data-name="Path 41" d="M1573.09,1847.406l1.029,1.108c.715-.322,1.405-.724,2.028-1.061,2.963-1.6,4.057-3.751,3.943-5.843-.109.365-.2.7-.268.987-.535,2.33-1.772,2.432-4.657,4.039a7.134,7.134,0,0,1-2.074.77Z" transform="translate(-1431.913 -1676.332)" fill="#f8bca0" fill-rule="evenodd"/>
        <path id="Path_42" data-name="Path 42" d="M1335.35,548.8c-.086-2.785.391-5.546-.86-9.708,1.6.818,5.676,9.666,5.917,10.673A15.069,15.069,0,0,0,1335.35,548.8Z" transform="translate(-1214.727 -490.707)" fill="#fbddc5" fill-rule="evenodd"/>
        <path id="Path_43" data-name="Path 43" d="M1647.537,728.24c-.537-5.785,1.938-7.242,3-8.905,1.537-2.4-1.1-.46-.906-3.762.111-1.846.333-4.7.44-4.862a4.847,4.847,0,0,1,2.2,3.814c1.205-2.857-2.712-5.935-2.332-8.6,2.447.145,4.961,5.517,5,9.068.063,5.064-3.591,10.2-7.412,13.253Z" transform="translate(-1499.611 -642.565)" fill="#fbddc5" fill-rule="evenodd"/>
        <path id="Path_44" data-name="Path 44" d="M1672.9,767.081c.339-1.079-1.514-.133-1.347-2.919.111-1.846.334-4.7.44-4.862a4.846,4.846,0,0,1,2.2,3.814,16.352,16.352,0,0,1-1.3,3.967Z" transform="translate(-1521.529 -691.154)" fill="#f0c29c" fill-rule="evenodd"/>
        <path id="Path_45" data-name="Path 45" d="M1848.14,707.72c4.188,5.79,13.858,26.752,17.007,40.726l-7.718-7.487c-1.123-5.33-6.056-24.776-9.288-33.239Z" transform="translate(-1682.279 -644.203)" fill="#d92e1f" fill-rule="evenodd"/>
        <path id="Path_46" data-name="Path 46" d="M911.558,1070.664l2.071-5.514C912.845,1065.6,911.186,1069.772,911.558,1070.664Z" transform="translate(-829.702 -969.556)" fill="#fff" fill-rule="evenodd"/>
        <path id="Path_47" data-name="Path 47" d="M1676.475,1082.442c-6.5-14.252-11.208-30.486-11.134-46.552,1.276,7.186,11.134,46.412,11.134,46.552Z" transform="translate(-1515.885 -942.921)" fill="#d92e1f" fill-rule="evenodd"/>
        <path id="Path_48" data-name="Path 48" d="M850.98,1290.529c.634-2.315,2.989-6.442,3.547-8.678C854.4,1283.71,853.013,1290.364,850.98,1290.529Z" transform="translate(-774.609 -1166.808)" fill="#d92e1f" fill-rule="evenodd"/>
        <path id="Path_49" data-name="Path 49" d="M2004.606,1237.783c1.576,2.794,6.593,13.761,9.569,18.531-2.636-2.256-14.41-20.877-16.625-24.693,1.37,1.638,5.277,4.524,7.055,6.163Z" transform="translate(-1818.28 -1121.086)" fill="#d92e1f" fill-rule="evenodd"/>
        <path id="Path_50" data-name="Path 50" d="M1793.884,1318.248l-1.9.053c-1.11-4.022-7.943-14.326-7.959-22.341,3.173,8.514,5.794,13.619,9.863,22.288Z" transform="translate(-1623.913 -1179.651)" fill="#d92e1f" fill-rule="evenodd"/>
        <path id="Path_51" data-name="Path 51" d="M653.081,1448.264c-.672-5.726.853-24.577,2.5-29.5,2.665-7.988,7.687-15.436,17.745-15.129,2.7.082,6.984,1.824,7.94,3.037C680.557,1420.838,665.774,1443.132,653.081,1448.264Z" transform="translate(-594.323 -1277.657)" fill="#fbddc5" fill-rule="evenodd"/>
        <path id="Path_52" data-name="Path 52" d="M1211.5,1221.49c.585-3.765.648-4.4.141-10.146,9.2,2.774,23.883-14.115,29.507-21.024,3.322,12.038,5.14,23.84,14.382,38.93a96.481,96.481,0,0,0-13.636,2.347c-.659-1.8-1-4.846-1.927-6.872-.793-1.735-2.372-2.75-6.338-1.716-2.519.657-5,1.334-7.447,1.979-4.416,1.164-3.283.834-6.042,2.95C1218.784,1226.744,1213.175,1222.75,1211.5,1221.49Z" transform="translate(-1102.774 -1083.492)" fill="#fbddc5" fill-rule="evenodd"/>
        <g id="Group_40" data-name="Group 40" transform="translate(108.726 106.828)">
          <path id="Path_53" data-name="Path 53" d="M1211.5,1221.49c.585-3.765.648-4.4.141-10.146.139.042.279.079.421.112.057.013.117.023.174.035.085.018.17.037.256.051.063.011.127.018.191.027.083.012.165.024.249.033.066.007.135.012.2.017s.158.013.237.017.139.005.209.006.167,0,.251,0l.191,0c.088,0,.176-.005.265-.01l.205-.014c.083-.006.168-.013.252-.022l.22-.026.246-.034.22-.036.263-.048.21-.043c.091-.02.181-.04.273-.063l.2-.049c.1-.025.194-.052.292-.079l.2-.057c.1-.028.191-.059.286-.09l.2-.064c.106-.035.212-.074.319-.111l.171-.061c.108-.039.216-.083.324-.126l.179-.07c.111-.045.224-.093.336-.142l.162-.069q.751-.331,1.515-.738l.165-.09q.178-.1.355-.195l.153-.088c.117-.066.232-.133.349-.2l.191-.114c.113-.067.225-.135.338-.2l.153-.1.349-.22.2-.131.314-.207.186-.125.349-.238.155-.108.367-.259.15-.108.351-.255.191-.141.314-.235.2-.148.334-.258.179-.139.331-.262.184-.146.366-.3.136-.11.344-.285.183-.152.022-.018.468-.4q.255-.218.509-.441l.008-.007.509-.45.042-.039q.476-.425.946-.861l.178-.165.306-.286.2-.188.27-.256.234-.224.287-.277.123-.12.375-.367.1-.1.337-.334.195-.195.266-.268.176-.178.3-.3.171-.176.292-.3.152-.157.281-.293.184-.193.231-.244.169-.179.079-.084.365-.391.053-.056.385-.417.027-.029.4-.44,0,0,.4-.438.022-.025.367-.408.046-.051.336-.377.067-.076.021-.023.357-.406.016-.018.276-.316.109-.125.248-.285.126-.146.22-.256.144-.168.193-.226.034-.039.283-.333.02-.022q.481-.567.916-1.091l.018-.021.035-.042.018-.021.017-.021.018-.022.017-.021.018-.021.017-.021.035-.042.017-.02h0l.017-.021.017-.021.017-.022.017-.021.017-.021.017-.021.017-.021.017-.021.017-.02h0l.031-.038,0,0,.017-.021.017-.02.017-.021.017-.02.017-.021.021-.027h0l.028-.035.017-.02.017-.02.017-.02,0,0,.047-.057.017-.02.032-.04.017-.02.016-.02.015-.02.017-.02.016-.02.016-.02.011-.013h0l0,0,.014-.016.006-.007.016-.02.015-.02.016-.02.015-.019.016-.02.016-.02.015-.019.015-.02.016-.019.015-.019.016-.02.015-.019.015-.019.016-.019.015-.019.015-.019c3.322,12.038,5.14,23.84,14.382,38.93l-.023,0-.024,0-.023,0-.023,0-.024,0-.023,0-.023,0-.023,0-.023,0h-.008l-.015,0-.023,0-.023,0-.023,0-.023,0-.023,0-.023,0-.023,0-.023,0-.017,0-.031,0-.023,0-.023,0-.023,0-.023,0-.023,0-.023,0-.023,0-.023,0h0l-.023,0-.023,0-.023,0-.023,0-.023,0-.023,0-.023,0-.023,0-.023,0h-.009l-.014,0-.023,0-.023,0-.023,0-.023,0-.023,0-.023,0-.023,0-.023,0-.047.005-.023,0-.023,0-.023,0-.023,0-.023,0-.023,0-.023,0-.023,0h0l-.021,0-.023,0-.023,0-.023,0-.023,0-.023,0-.023,0-.023,0a89.107,89.107,0,0,1-10.467-23.332c-4.63,5.978-10.475,13.588-19.06,19.37-2.467.671-2.021.713-4.353,2.5-1.356-1.194-6.965-5.188-8.64-6.448Zm16.751-17.474.509-.449Z" transform="translate(-1211.5 -1190.321)" fill="#f8bca0" fill-rule="evenodd"/>
        </g>
        <path id="Path_54" data-name="Path 54" d="M927.489,1495.2a21.626,21.626,0,0,1,.9-10.759c3.889-9.212,5.921-14.744,7.426-24.622,1.494-.148,21.827,12.6,24.641,14.251a50.942,50.942,0,0,1-3.567,3.713c-3.921-1.885-7.855-3.149-11.907-5.141-2.869-1.41-4.7-2.3-5.7-.733a20.743,20.743,0,0,0-2.325,6.613c-3.968.6-5.779,3.376-3.994,6.759-4.091,2.053-3.628,4.881-2.177,6.585-2.627.928-3.066,1.789-3.3,3.333Z" transform="translate(-843.954 -1328.802)" fill="#f0c29c" fill-rule="evenodd"/>
        <path id="Path_55" data-name="Path 55" d="M1811.07,1572.428c31.785-7.944,29.542,22.812,26.51,47.089C1833.837,1599.012,1823.187,1590.235,1811.07,1572.428Z" transform="translate(-1648.536 -1430.146)" fill="#fbddc5" fill-rule="evenodd"/>
        <path id="Path_56" data-name="Path 56" d="M1811.07,1572.436c10.842-2.709,17.723-.915,21.966,3.589a25.263,25.263,0,0,0-20.7-1.753Q1811.706,1573.369,1811.07,1572.436Z" transform="translate(-1648.536 -1430.153)" fill="#f8bca0" fill-rule="evenodd"/>
        <path id="Path_57" data-name="Path 57" d="M2073.456,1779.95c1.227,8.946.131,19.814-1.094,29.626a62.62,62.62,0,0,0-3.362-11.914C2070.662,1793.512,2072.128,1787.111,2073.456,1779.95Z" transform="translate(-1883.318 -1620.205)" fill="#f8bca0" fill-rule="evenodd"/>
        <path id="Path_58" data-name="Path 58" d="M653.081,1448.264c-.672-5.726.853-24.577,2.5-29.5,2.665-7.988,7.687-15.436,17.745-15.129,2.7.082,6.984,1.824,7.94,3.037-.489,9.851-7.791,23.634-16.462,32.842a70.951,70.951,0,0,0,13.666-21.394c-1.4-13.54-15.827-8.015-19.555.158-3.347,7.335-3.373,17.177-3.274,28.738a21.6,21.6,0,0,1-2.554,1.246Zm11.66-8.687q-.594.629-1.195,1.227-.806.8-1.625,1.548.817-.744,1.625-1.548Q664.147,1440.207,664.741,1439.577Zm-2.877,2.828q-.587.533-1.178,1.033C661.079,1443.105,661.472,1442.76,661.863,1442.405Zm-1.247,1.091q-.583.491-1.17.949Q660.032,1443.989,660.617,1443.5Zm-1.255,1.015q-.576.448-1.155.859Q658.785,1444.959,659.362,1444.512Zm-1.251.928c-.121.086-.244.171-.365.255C657.868,1445.611,657.989,1445.526,658.111,1445.44Zm-.464.322q-.33.225-.66.438C657.208,1446.058,657.427,1445.913,657.647,1445.762Zm-.791.521c-.113.072-.225.143-.338.212Zm-.481.3q-.369.226-.738.435C655.883,1446.878,656.13,1446.733,656.376,1446.582Z" transform="translate(-594.323 -1277.657)" fill="#f8bca0" fill-rule="evenodd"/>
        <path id="Path_59" data-name="Path 59" d="M927.489,1495.2a21.626,21.626,0,0,1,.9-10.759c3.889-9.211,5.921-14.743,7.426-24.622,1.494-.148,21.827,12.6,24.641,14.251a50.725,50.725,0,0,1-3.567,3.712c-3.921-1.884-7.855-3.149-11.907-5.141-2.869-1.411-4.7-2.3-5.7-.734a20.75,20.75,0,0,0-2.325,6.613c-3.968.6-5.779,3.375-3.994,6.759-4.091,2.053-3.628,4.881-2.178,6.585-2.626.928-3.066,1.789-3.3,3.333Z" transform="translate(-843.954 -1328.802)" fill="#f8bca0" fill-rule="evenodd"/>
        <path id="Path_60" data-name="Path 60" d="M1694.2,1637.9a12.9,12.9,0,0,1,1.75-.135c.966,1.114,14.308,17.806,15.77,19.431l-.346,1.342C1705.457,1651.762,1699.517,1645.839,1694.2,1637.9Z" transform="translate(-1542.154 -1490.775)" fill="#f8bca0" fill-rule="evenodd"/>
        <path id="Path_61" data-name="Path 61" d="M683.73,1661.387c11.23-9.9,25.328-34.241,32.191-47.966,1.615-3.229,5.254-11.617,6.411-13.552,2.05-3.427,15.713-17.033,19.275-20.658,2.156-2.2,2.1-1.7,4.864-2.4,2.442-.621,5.889-1.587,8.211-2.088,2.041-.439,2.968-.458,3.5,1.851.394,1.705,1.1,3.641,1.178,4.566-3.811-.454-3.362-1.85-3.222-2.957-1.79.24-3.221.7-4.895.958a7.745,7.745,0,0,0-3.895,1.431,7.274,7.274,0,0,1,4.617-.228c1.475.425,7.127,2.159,10.307,3.339,1.712.635,2.593.472,2.052,3.271a23.533,23.533,0,0,0-7.834-1.246c6.984,1.708,8.106,1.359,7.838,4.343a45.183,45.183,0,0,0-4.651-.472c2.495,1.112,5.745,1.464,8.336,1.931,1.971.354,2.009.587,1.7,2.483a20.224,20.224,0,0,1-.9,3.758,4.481,4.481,0,0,1-1.88,2.628,16.45,16.45,0,0,1-4.1,2.447c.068-3.239,3.017-5.435,4.758-6.8-.712-.447-1.729.15-3.105.56-6.489,1.93-9.085,7.211-17.561,11.852-13.41,7.343-10.386-.573-16.611,16.749-5.942,16.536-11.2,33.129-18.378,48.288-5.325-1.132-24-9.308-28.208-12.088Z" transform="translate(-622.369 -1433.187)" fill="#fbddc5" fill-rule="evenodd"/>
        <path id="Path_62" data-name="Path 62" d="M977.016,1616.255c-.716,1.552-7.89,7.646-11.906,13a39.2,39.2,0,0,0-4.858,9.189c-5.036-3.015-6.793-2.959-8.078-4.639-.868-1.134-1.548-2.621.478-3.032,2.719-.55,6.2.6,7.522-1.9-1.843.315-2.81.472-4.554-.433-.876-.455-3.935-3.736.6-3.952,2.177-.1,5.063-.093,6.9-.873-1.7-.793-7.6-1.107-6.877-4.369.4-1.832,2.433-1.517,4.251-1.559,3.527-.082,7.928.013,8.914-.951-3.492-.533-3.9-.766-6.34-2.229a3.152,3.152,0,0,1-.613,1.688c-.69-.338-1.616-.487-1.828-.628a12.7,12.7,0,0,1,1.292-3.869c1.247-2.316,2.153-1.793,4.228-.759,2.259,1.125,9.9,4.262,10.871,5.322Z" transform="translate(-865.95 -1465.557)" fill="#fbddc5" fill-rule="evenodd"/>
        <path id="Path_63" data-name="Path 63" d="M238.11,1705c5.282-9.354,25.619-18.661,34.411-28C269.386,1688.233,245.511,1698.1,238.11,1705Z" transform="translate(-216.742 -1526.495)" fill="#d92e1f" fill-rule="evenodd"/>
        <path id="Path_64" data-name="Path 64" d="M657.674,1805.716c9.426-3.527,17.6-11.921,22.88-19.266-.53,1.8-.349,10.662-.294,12.482-13.174,12.134-17.113,27.969-11.4,40.272-3.645,4.99-10.035,11.313-10.17,11.142C658.635,1848.906,657.44,1810.661,657.674,1805.716Z" transform="translate(-598.624 -1626.122)" fill="#fbddc5" fill-rule="evenodd"/>
        <path id="Path_65" data-name="Path 65" d="M657.68,1805.716c9.426-3.527,17.6-11.921,22.88-19.266a13.724,13.724,0,0,0-.284,2.578,54.252,54.252,0,0,1-22.626,18.255c0-.676.012-1.21.029-1.567Z" transform="translate(-598.63 -1626.122)" fill="#f8bca0" fill-rule="evenodd"/>
        <path id="Path_66" data-name="Path 66" d="M657.665,1991.662q1.125-.421,2.227-.932l1.33,43.2a17.847,17.847,0,0,1-2.546,2.367c-.05-1.44-1.245-39.685-1.011-44.63Z" transform="translate(-598.615 -1812.069)" fill="#f8bca0" fill-rule="evenodd"/>
        <path id="Path_67" data-name="Path 67" d="M776.9,1948.984c-7.174-12.7,2.376-32,14.629-39.834,1.471.443,5.724,2.866,6.537,4.005-2.176,5.111-17.4,32.323-21.166,35.829Z" transform="translate(-704.932 -1737.81)" fill="#fbddc5" fill-rule="evenodd"/>
        <path id="Path_68" data-name="Path 68" d="M899.5,2129.58c-1.414,2.488-2.883,5.019-4.31,7.418a6.843,6.843,0,0,1,4.31-7.418Z" transform="translate(-814.779 -1938.458)" fill="#fbc2a5" fill-rule="evenodd"/>
        <path id="Path_69" data-name="Path 69" d="M776.911,2148.212c-3.338-5.909-3.054-13.246-.564-20.192-.976,8.011-.6,14.312,1.813,18.74a12.274,12.274,0,0,1-1.248,1.451Z" transform="translate(-704.94 -1937.038)" fill="#f8bca0" fill-rule="evenodd"/>
        <path id="Path_70" data-name="Path 70" d="M948.48,1909.924a12.771,12.771,0,0,1,1.479-.774c1.471.443,5.724,2.866,6.537,4.005-.2.478-.5,1.079-.856,1.756a48.117,48.117,0,0,0-7.159-4.989Z" transform="translate(-863.359 -1737.81)" fill="#f8bca0" fill-rule="evenodd"/>
        <path id="Path_71" data-name="Path 71" d="M1246.48,864.72c1.238-.619,5.928-11.44,5.85-12.25C1251.281,853.975,1246.932,862.612,1246.48,864.72Z" transform="translate(-1134.615 -775.963)" fill="#fff" fill-rule="evenodd"/>
        <path id="Path_72" data-name="Path 72" d="M1214.45,879.358c1.05-.645,5.421-8.787,5.133-10.508C1218.533,870.289,1214.813,877.463,1214.45,879.358Z" transform="translate(-1105.46 -790.873)" fill="#fff" fill-rule="evenodd"/>
        <path id="Path_73" data-name="Path 73" d="M947.05,1055.607a29.129,29.129,0,0,0,2.554-8.4A31.03,31.03,0,0,0,947.05,1055.607Z" transform="translate(-862.058 -953.226)" fill="#fff" fill-rule="evenodd"/>
        <path id="Path_74" data-name="Path 74" d="M971.63,1053.9c.767-.992,1.869-5.611,1.765-7.3A31.013,31.013,0,0,0,971.63,1053.9Z" transform="translate(-884.432 -952.67)" fill="#fff" fill-rule="evenodd"/>
        <path id="Path_75" data-name="Path 75" d="M924.014,1070.924c.682-2.4,1.6-4.017,2.739-7.674C925.55,1063.945,923.937,1069.019,924.014,1070.924Z" transform="translate(-841.086 -967.826)" fill="#fff" fill-rule="evenodd"/>
        <path id="Path_76" data-name="Path 76" d="M1139.32,653.042c1.168-.848,1.024-2.852,10.261-6.487C1146.153,646.281,1140.468,649.53,1139.32,653.042Z" transform="translate(-1037.072 -588.513)" fill="#fff" fill-rule="evenodd"/>
        <path id="Path_77" data-name="Path 77" d="M1332.081,825.88c-.97,2.292-4.8,10.7-4.9,12.515C1328.947,835.922,1332.252,827.723,1332.081,825.88Z" transform="translate(-1208.073 -751.759)" fill="#fff" fill-rule="evenodd"/>
        <path id="Path_78" data-name="Path 78" d="M1295.328,845.5c-1.225.919-5.844,10.755-5.036,11.862Z" transform="translate(-1174.41 -769.618)" fill="#fff" fill-rule="evenodd"/>
        <path id="Path_79" data-name="Path 79" d="M284.607,1203.57c-2.332,14.976-6.254,23.512-11.962,32.2,10.042-10.723,10.918-14.5,17.08-27.436-6.095,21.156-25.316,49.522-49.2,50.539,16.216-6.9,35.209-21.05,44.086-55.3Z" transform="translate(-218.935 -1095.553)" fill="#d92e1f" fill-rule="evenodd"/>
        <path id="Path_80" data-name="Path 80" d="M285.72,1382.983c33.959-7.337,64.888-27.161,63.612-67.813,3.8,13.132-3.02,34.44-14.777,48.013C322.837,1376.709,302.02,1380.405,285.72,1382.983Z" transform="translate(-260.079 -1197.137)" fill="#d92e1f" fill-rule="evenodd"/>
        <path id="Path_81" data-name="Path 81" d="M1778.495,859.346c-17.112-10.708-35.249-25.877-43.875-47.046a15.674,15.674,0,0,1-1.47,7.275c5.726,9.766,18.98,29.594,45.345,39.772Z" transform="translate(-1577.609 -739.398)" fill="#d92e1f" fill-rule="evenodd"/>
        <path id="Path_82" data-name="Path 82" d="M1737.385,977.625c-13.81-.767-31.79-16.275-43.08-24.687,1.552,4.195,10.293,17.67,12.72,19.885-5.86-1.516-12.641-15.876-15.362-22.261-5.89-4.085-12.642-19.892-12.528-28.745.547,4.6,5.381,19.4,10.235,23.364a78.761,78.761,0,0,1-7.168-29.561c2.587,12,6.745,27.881,11.433,33.752,1.632,2.044,9.3,8.8,11.7,9.651-8.008-9.85-18.846-25.94-20.07-38.846,1.916,1.208,29.442,37.324,30.334,40.866-8.293-4.185-20.6-27.515-27.611-34.866,1.379,5.973,10.725,18.741,14.835,24.58,9.4,13.358,19.256,20.481,34.566,26.868Z" transform="translate(-1528.44 -833.445)" fill="#d92e1f" fill-rule="evenodd"/>
        <path id="Path_83" data-name="Path 83" d="M1992.473,1470.652c-8.5-12.785-30.6-29.571-41.523-41.742C1956.727,1441.9,1982.818,1462.155,1992.473,1470.652Z" transform="translate(-1775.862 -1300.67)" fill="#d92e1f" fill-rule="evenodd"/>
        <path id="Path_84" data-name="Path 84" d="M840,864.144c-3.294-.252-5.067-.459-8.635,1.466C833.263,863.211,837.5,862.453,840,864.144Z" transform="translate(-756.75 -785.759)" fill="#fff" fill-rule="evenodd"/>
        <path id="Path_85" data-name="Path 85" d="M1129.952,439.879a41.084,41.084,0,0,0-4.984,1.1,54.1,54.1,0,0,0-2.128-8.828C1124,432.857,1126.955,436.168,1129.952,439.879Z" transform="translate(-1022.071 -393.364)" fill="#fbddc5" fill-rule="evenodd"/>
        <path id="Path_86" data-name="Path 86" d="M1234.32,530.279q2.933-.425,5.936-.689a28.392,28.392,0,0,1,1.286,10.533c-.478-1.195-3.45-5.215-7.222-9.844Z" transform="translate(-1123.546 -482.06)" fill="#d92e1f" fill-rule="evenodd"/>
        <path id="Path_87" data-name="Path 87" d="M1117.52,556.513q.849-.225,1.707-.433a31.5,31.5,0,0,1,.647,6.323C1119.128,560.7,1118.333,558.683,1117.52,556.513Z" transform="translate(-1017.229 -506.172)" fill="#d92e1f" fill-rule="evenodd"/>
        <path id="Path_88" data-name="Path 88" d="M1043.97,573.766q1.432-.5,2.884-.956a86.338,86.338,0,0,1-.871,15.688C1045.57,585.446,1044.91,579.145,1043.97,573.766Z" transform="translate(-950.279 -521.401)" fill="#d92e1f" fill-rule="evenodd"/>
        <path id="Path_89" data-name="Path 89" d="M760.029,747.291a27.687,27.687,0,0,0-1.16,2.65c-.152-1.681-.244-3.707-.4-6.491C758.842,744.4,759.377,745.789,760.029,747.291Z" transform="translate(-690.402 -676.727)" fill="#f8bca0" fill-rule="evenodd"/>
        <path id="Path_90" data-name="Path 90" d="M825.42,726.188q.58-.73,1.186-1.448c.98,3.368,1.572,5.6,2.662,8.831A45.171,45.171,0,0,1,825.42,726.188Z" transform="translate(-751.343 -659.696)" fill="#d92e1f" fill-rule="evenodd"/>
        <path id="Path_91" data-name="Path 91" d="M791.11,776.22q.389-.594.8-1.18a70.051,70.051,0,0,0,2.353,7.048A19.89,19.89,0,0,1,791.11,776.22Z" transform="translate(-720.112 -705.482)" fill="#d92e1f" fill-rule="evenodd"/>
        <path id="Path_92" data-name="Path 92" d="M764.76,565.881q.758-1.413,1.607-2.782c1.467,3.146,3.519,6.333,5.437,6.678a42.109,42.109,0,0,1-2.469-10.3c1.233,2.358,3.681,6.764,6.54,8.478a85.711,85.711,0,0,1-1.735-10.277c3.922,6.237,10.738,17.834,20.833,17.347-4.082-4.15-6.667-8.23-7.715-14.29.987,1.417,4.715,8.432,10.138,9.373-7.822-5.773-2.744-19.932-2.986-27.812,2.2,3.417,3.721,6.149,5.295,8.978A70.473,70.473,0,0,0,799.3,540.8q3.076-.7,6.231-1.2c3.393,4.331,6.461,8.7,6.589,9.792-3.558,1.061-9.4,3.708-11.627,5.712,3.1-.053-.721,2.606-1.444,3.805a6.46,6.46,0,0,1,2.331-.774,9.622,9.622,0,0,0-1.217,3.8,4.253,4.253,0,0,1,1.391-1.7l.1,1.182a20.7,20.7,0,0,1,5.051-5.739c-.723,5.091,3.531,11.6,9.5,10.139,3.857-.943,5.643-7.72,2.908-12.991,1.812,1.133,3.659,2.913,3.47,5.659.865-.8,1.129-1.333,1.4-3.058,2.016,4.8-3.082,14.411-4.159,17.744.8-.26,4.333-4.385,5.274-6.206-.129,6.154-5.722,12.442-11.144,14.8,6.725.315,12.932-5.6,15.89-11.037.816,5.721-4.048,13.667-9.466,16.384,5.727.862,10.578-7.054,11.58-7.843-.757,5.441-2.325,6.939-6.451,10.265a22.048,22.048,0,0,0,7.5-2.732c.032,1.378.347,4.209.416,5.579-1.84,3.2-15.518,14.907-19.745,17.905-10.172,7.215-16.242,2.122-26.851-4.039a25.679,25.679,0,0,1-8.13-8.782c-2.492-4.465-3.257-11.5-6.586-15.085a6.973,6.973,0,0,0,2.917.673c-.576-.855-3.269-3.081-.967-8.382.8,4.381,4.579,10.561,8.34,9.215,2.776-.994,1.991-8.87-.884-10.994a6.8,6.8,0,0,1,1.16-.14c-2.528-3.969-12.192-3.061-13.289,5.286-3.139-6.331-4.157-8.652-4.631-12.161Z" transform="translate(-696.127 -491.171)" fill="#fbddc5" fill-rule="evenodd"/>
        <g id="Group_42" data-name="Group 42" transform="translate(68.633 38.786)">
          <path id="Path_93" data-name="Path 93" d="M1334.936,540.834c-.117-.554-.263-1.133-.446-1.744,1.6.818,5.676,9.666,5.917,10.673q-.452-.167-.9-.3a68.8,68.8,0,0,0-4.57-8.625Z" transform="translate(-1283.359 -529.493)" fill="#f8bca0" fill-rule="evenodd"/>
          <g id="Group_41" data-name="Group 41">
            <path id="Path_94" data-name="Path 94" d="M1129.952,439.879q-.666.105-1.33.231a38.447,38.447,0,0,0-4.463-3.3c-.4-1.676-.844-3.219-1.319-4.662C1124,432.857,1126.955,436.168,1129.952,439.879Z" transform="translate(-1090.704 -432.15)" fill="#f8bca0" fill-rule="evenodd"/>
            <path id="Path_95" data-name="Path 95" d="M1318.759,850.816c.8-.259,4.333-4.384,5.274-6.206a11.178,11.178,0,0,1-.187,1.788C1322.272,848.3,1320.508,850.2,1318.759,850.816Zm-5.868,8.59c6.725.314,12.932-5.6,15.89-11.037a9.4,9.4,0,0,1,.085,1.594c-4.552,6.918-8.506,10.462-15.976,9.443Zm6.424,5.346c5.727.862,10.578-7.054,11.58-7.843-.086.621-.184,1.19-.293,1.717C1326.406,863.529,1323.474,865.776,1319.315,864.752Zm5.129,2.422a22.048,22.048,0,0,0,7.5-2.732c.032,1.378.347,4.209.416,5.579a9.29,9.29,0,0,1-.957,1.28c-.261-1.649-.511-3.342-.745-5.094A12.1,12.1,0,0,1,1324.444,867.175Z" transform="translate(-1263.698 -807.594)" fill="#f0c29c" fill-rule="evenodd"/>
            <path id="Path_96" data-name="Path 96" d="M1209.8,539.726l.83-.136c1.239,1.58,2.433,3.165,3.458,4.595-1.384-1.552-2.8-3.051-4.288-4.459Z" transform="translate(-1169.86 -529.948)" fill="#f8bca0" fill-rule="evenodd"/>
            <path id="Path_97" data-name="Path 97" d="M764.76,770.88q.758-1.414,1.607-2.782c1.384,2.97,3.291,5.974,5.112,6.593q.346,1.435.709,2.846a8.591,8.591,0,0,0-2.8,5.5C766.252,776.709,765.234,774.388,764.76,770.88Zm6.011.755a38.648,38.648,0,0,1-1.4-6.824Q770.022,768.278,770.771,771.634Zm14.323,38.394a27.393,27.393,0,0,1-6.394-7.562c-2.492-4.465-3.257-11.5-6.586-15.085a6.973,6.973,0,0,0,2.917.673,6.536,6.536,0,0,1-1.68-6.241A118.479,118.479,0,0,0,785.094,810.028Z" transform="translate(-764.76 -734.955)" fill="#f8bca0" fill-rule="evenodd"/>
          </g>
        </g>
        <g id="Group_43" data-name="Group 43" transform="translate(74.662 59.723)">
          <ellipse id="Ellipse_2" data-name="Ellipse 2" cx="9.736" cy="7.756" rx="9.736" ry="7.756" transform="translate(32.387)" fill="#fff"/>
          <ellipse id="Ellipse_3" data-name="Ellipse 3" cx="8.103" cy="5.414" rx="8.103" ry="5.414" transform="matrix(0.742, -0.67, 0.67, 0.742, 0, 21.574)" fill="#fff"/>
        </g>
        <path id="Path_98" data-name="Path 98" d="M1593.1,1074.682c7.754-39.094-.051-41.522-23.1-70.8-10.9-13.4-15.789-30.594-19.026-47.752-.535-2.837-.972-6.046-1.273-8.932,2.249-1.731,6.222-7.882,7.382-9.32-.438,28,3.04,45.308,21.777,70.018,2.712,3.575,5.415,7.422,7.915,11.494,11.793,19.211,15.406,29.234,6.325,55.289Z" transform="translate(-1410.622 -853.707)" fill="#d92e1f" fill-rule="evenodd"/>
        <path id="Path_99" data-name="Path 99" d="M1137.43,1165.862a3.6,3.6,0,0,0,.228.58,1.093,1.093,0,0,0,.227.373c.572.783,1.538,1.13,3.049.93,1.7-.226,2.541-.874,2.478-2.458l.021-.014-.023-.031-.006-.1c-.083-.043-.166-.083-.252-.123a2.183,2.183,0,0,0-.68-.252C1140.613,1164.211,1138.311,1164.535,1137.43,1165.862Z" transform="translate(-1035.352 -1059.995)" fill="#fff" fill-rule="evenodd"/>
        <path id="Path_100" data-name="Path 100" d="M465.332,137.109c-.395-10.449-.629-19.793,1.054-29.674,1.12,23.066,6.174,32.511,18.724,34.875-5.952-2.75-14.757-20.1-14.466-26.882,2.853,6.332,7.63,16.374,14.863,16.262-13.332-9.343-15.518-38.058-10.888-46.847a54.439,54.439,0,0,0,3.024,18.576q.407-.7.853-1.367a72.273,72.273,0,0,1-2.889-22.3,128.014,128.014,0,0,0,5.086,19.505q.668-.724,1.389-1.372c-1.361-7.4-2.44-11.251-1.046-23.407.879,11.424,2.656,17.881,3.922,21.588.445-.253,1.193-.965,1.657-1.174-.4.4-1.092,1.282-1.481,1.687a35.83,35.83,0,0,0,6.608,11.18c1.978,2.371,7.015,7.622,10.778,8.755-7.861-6.437-13.862-24.432-13.1-34.024.985,2.044,2.424,16.465,8.337,24.672-2.985-10.515-8.047-25.48-7.755-37.84,1.916,2.555.173,22.249,15.389,41.66-3.584-5.677-4.752-15.5-5.56-23.923q-1.147.421-2.283.878,1.105-.767,2.228-1.45c-.252-2.666-.473-5.178-.728-7.355a35.361,35.361,0,0,1,1.745,6.752q1.466-.843,2.955-1.552a154.864,154.864,0,0,0-2.169-16.181c1.576,4.144,3.482,9.76,5.341,14.83q.964-.365,1.934-.678a68.4,68.4,0,0,0-5.3-15.543,135.957,135.957,0,0,1,12.905,13.866,43.666,43.666,0,0,1,7.007-.288c-3.312-9.451-10.514-18.282-16.943-23.835,7.916,5.535,16.409,15.568,22.559,24.384q1.393.218,2.788.515-1.2.026-2.38.074a85.172,85.172,0,0,1,7.433,12.565c1.957-15.358-9.448-30.863-25.42-43.046,20.791,11.721,34.768,35.671,23.382,58.711.833-.541,3.976-5.562,4.63-6.655,1.051,6.033-4.758,16.279-5.985,17.392,6.582-3.482,7.578-11.757,10.194-17.44.259,10.576-.624,14.991-5.222,22.37,16.432-14.966,6.51-42.549.678-56.711,12.661,20.054,13.223,44.837,2.715,61,8.5-4.595,12.021-22.45,12.673-29.854.56,8.867-.683,12.076-2.345,18.716,2.849-5.649,3.585-9.411,3.942-16.021,1.122-20.825-5.336-35.09-21.176-47.955,28.664,16.167,27.03,55.845,43.812,71.773-7.162-28.514-15.8-60.726-40.6-78.7,31.446,17.528,38.309,52.953,47.24,70.82C580,97.251,580.68,94.5,572.054,74.46c-13.114-30.465-44.513-43.072-72.7-33.8-30.254,9.954-55.887,52.986-51.478,82.89-.569-5.579,2.5-17.587,8.939-29.743a135.786,135.786,0,0,0-.321,34.428c.241-13.215,3.383-29.173,7.341-41.443-3.6,24.258-2.31,39.611,1.5,50.317Z" transform="translate(-407.235 -34.291)" fill="#ec5d2e" fill-rule="evenodd"/>
        <path id="Path_101" data-name="Path 101" d="M899.87,944.376c4.09,6.887,8.292,3.328,5.615-3.826C906.41,947.8,903.023,948.517,899.87,944.376Z" transform="translate(-819.112 -856.138)" fill="#20823c" fill-rule="evenodd"/>
        <path id="Path_102" data-name="Path 102" d="M913.828,912.48a1.26,1.26,0,1,1-1.258,1.26A1.258,1.258,0,0,1,913.828,912.48Z" transform="translate(-830.672 -830.587)" fill="#fff" fill-rule="evenodd"/>
        <path id="Path_103" data-name="Path 103" d="M1259.21,737.11c3.625,6.768,10.85,3.548,10.057-4.06C1267.595,739.645,1262.4,740.062,1259.21,737.11Z" transform="translate(-1146.203 -667.26)" fill="#20823c" fill-rule="evenodd"/>
        <path id="Path_104" data-name="Path 104" d="M1316.461,685.14a1.433,1.433,0,1,1-1.431,1.433A1.432,1.432,0,0,1,1316.461,685.14Z" transform="translate(-1197.013 -623.65)" fill="#fff" fill-rule="evenodd"/>
        <path id="Path_105" data-name="Path 105" d="M1340.942,1963.973c-2.676-2.805-22.74-39-26.857-46.486-1.527-2.779-12.983-5.843-14.785-7.472,8.489-1.536,15.4-8.215,19.926-11.514,2.644,1.237,5.339,4.587,7.926,8.4,4.97,7.323,8.624,13.342,14.452,20.183,6.816,8,16.126,17.01,23.425,23.853-6.548,4.406-16.383,10.453-24.089,13.038Z" transform="translate(-1182.695 -1728.116)" fill="#fbddc5" fill-rule="evenodd"/>
        <path id="Path_106" data-name="Path 106" d="M1301.321,1911.1a7.877,7.877,0,0,1-2.021-1.074c8.489-1.536,15.4-8.215,19.926-11.514q.307.144.615.324C1314.84,1903.958,1307.925,1908.869,1301.321,1911.1Z" transform="translate(-1182.695 -1728.125)" fill="#f8bca0" fill-rule="evenodd"/>
        <path id="Path_107" data-name="Path 107" d="M1101.833,2104.585l-1.283-2.363c-15.592,1.21-28.944-6.513-26.614-27.039-.258,17.011,11.513,25.87,25.341,24.7-4.52-8.319-18.218-36.883-23.184-42.273-1.541-1.672-10.069-4.694-14.076-6.126l-2.64,5.779c-4.517,13.373-9.317,27.49-14.524,40.716,11.7,1.437,20.811-2.515,25.192-14.344-2.057,13.542-15.014,18.239-26.155,16.766q-1.536,3.831-3.12,7.538a110.431,110.431,0,0,0,61.062-3.348Z" transform="translate(-947.367 -1867.367)" fill="#fbddc5" fill-rule="evenodd"/>
        <path id="Path_108" data-name="Path 108" d="M1094.484,2455.152c-3.8,10.405-15.185,14-25.123,12.687q-.3.759-.61,1.514c9.885,1.314,21.372-1.928,25.735-14.2l0,0Z" transform="translate(-972.836 -2234.81)" fill="#f8bca0" fill-rule="evenodd"/>
        <path id="Path_109" data-name="Path 109" d="M1447.117,2476.631l-.3-.549c-11.607.9-21.97-3.151-25.549-13.746l-.091-.135c4.205,14.561,18.105,15.236,25.937,14.43Z" transform="translate(-1293.636 -2241.227)" fill="#f8bca0" fill-rule="evenodd"/>
        <path id="Path_110" data-name="Path 110" d="M1086.9,2318.064q-.313.807-.631,1.613c11.7,1.437,20.811-2.515,25.192-14.344a36.283,36.283,0,0,0,1.256-10.293c-2.5,16.756-12.561,25.011-25.817,23.025Z" transform="translate(-988.783 -2089.069)" fill="#f8bca0" fill-rule="evenodd"/>
        <path id="Path_111" data-name="Path 111" d="M1410.278,2315.59c-.258,17.011,11.512,25.87,25.341,24.7-.374-.688-.812-1.518-1.3-2.458-9.844,1.583-20.632-2.454-24.039-22.237Z" transform="translate(-1283.709 -2107.774)" fill="#f8bca0" fill-rule="evenodd"/>
        <path id="Path_112" data-name="Path 112" d="M1311.21,2104.585l-1.283-2.363q-.75.058-1.492.089.735,1.364,1.479,2.726C1310.346,2104.888,1310.78,2104.739,1311.21,2104.585Zm-4.035-4.62c.49-.016.982-.044,1.478-.086-4.52-8.319-18.218-36.884-23.184-42.273-1.541-1.672-10.07-4.694-14.076-6.126l-.6,1.32c2.855,1.144,5.637,1.905,8.5,3.086,6.065,2.5,6.072,3.218,9.307,9.018,6.454,11.578,12.345,23.39,18.578,35.059Z" transform="translate(-1156.744 -1867.367)" fill="#f8bca0" fill-rule="evenodd"/>
        <path id="Path_113" data-name="Path 113" d="M1063.5,2052.01l-1.478-.53-2.64,5.779c-4.517,13.373-9.317,27.49-14.524,40.716q.937.114,1.85.183c6.36-17.681,13.614-38.781,16.791-46.148Zm-17.667,48.577q-.975-.064-1.936-.191-1.536,3.831-3.12,7.538,1.089.259,2.186.492c.915-2.462,1.878-5.1,2.87-7.837Z" transform="translate(-947.376 -1867.367)" fill="#f8bca0" fill-rule="evenodd"/>
        <g id="Group_44" data-name="Group 44" transform="translate(40.149 4.639)">
          <path id="Path_114" data-name="Path 114" d="M1488.283,207.356c3.067,7.9,6.465,14.941,11.565,19.781-7.162-28.514-15.8-60.725-40.6-78.7,34.755,15.349,37.615,36.9,47.24,70.82-8.932-17.867-15.8-53.292-47.24-70.82C1475.294,163.9,1485.982,183,1488.283,207.356Z" transform="translate(-1368.439 -139.755)" fill="#d92e1f" fill-rule="evenodd"/>
          <path id="Path_115" data-name="Path 115" d="M1187.159,229.056c1.957-15.358-9.448-30.863-25.419-43.046C1176.169,200.945,1184.328,210.652,1187.159,229.056Z" transform="translate(-1097.629 -173.953)" fill="#d92e1f" fill-rule="evenodd"/>
          <path id="Path_116" data-name="Path 116" d="M1443.021,270.861c.56,8.867-.683,12.076-2.345,18.716,2.848-5.649,3.585-9.41,3.942-16.021,1.122-20.825-5.336-35.09-21.177-47.955,11.973,11.737,19.19,25.335,19.581,45.26Z" transform="translate(-1335.843 -209.99)" fill="#d92e1f" fill-rule="evenodd"/>
          <path id="Path_117" data-name="Path 117" d="M1413.124,416.8l.051-.084c1.051,6.033-4.758,16.279-5.985,17.392,6.583-3.482,7.579-11.757,10.194-17.44.259,10.576-.623,14.991-5.222,22.37,16.406-14.943,6.542-42.463.705-56.645,3.538,15.044,3.94,26.783.307,34.273l-.051.136Zm-.264-34.445.065.106-.084-.187Z" transform="translate(-1321.051 -352.599)" fill="#d92e1f" fill-rule="evenodd"/>
          <path id="Path_118" data-name="Path 118" d="M1011.841,204.867q1.186-.018,2.376.028c-3.312-9.451-10.514-18.282-16.943-23.835-4.331-2.927-7.828-4.629-10.743-6.54,10.838,8.011,19.78,18.119,25.311,30.346Z" transform="translate(-938.143 -163.494)" fill="#d92e1f" fill-rule="evenodd"/>
          <path id="Path_119" data-name="Path 119" d="M998.656,413.728a41.607,41.607,0,0,1,1.474,6.054q.49-.281.983-.548A41.05,41.05,0,0,0,995.96,404.5a39.714,39.714,0,0,1,2.425,8.529c.024.133.247.562.271.7Z" transform="translate(-946.727 -372.834)" fill="#d92e1f" fill-rule="evenodd"/>
          <path id="Path_120" data-name="Path 120" d="M921.989,220.813c1.916,2.555.173,22.249,15.389,41.66-9.221-15.686-12.869-37.393-14.117-58.363A123.3,123.3,0,0,0,921.989,220.813Z" transform="translate(-879.377 -190.429)" fill="#d92e1f" fill-rule="evenodd"/>
          <path id="Path_121" data-name="Path 121" d="M465.325,149.841c-.395-10.449-.629-19.793,1.054-29.674,1.119,23.066,6.174,32.511,18.724,34.875-5.951-2.75-14.757-20.1-14.466-26.882,2.853,6.331,7.63,16.374,14.863,16.262-13.332-9.343-15.518-38.058-10.888-46.847a54.467,54.467,0,0,0,3.023,18.576q.408-.7.854-1.368a72.269,72.269,0,0,1-2.889-22.3,128.013,128.013,0,0,0,5.086,19.505q.668-.724,1.388-1.372c-1.361-7.4-2.44-11.251-1.046-23.407.879,11.424,2.656,17.881,3.921,21.588.445-.253,1.194-.965,1.657-1.174-.4.4-1.092,1.282-1.481,1.687a35.83,35.83,0,0,0,6.608,11.18c1.978,2.372,7.015,7.622,10.778,8.755-20.17-14.477-21.958-55.753-10.883-68.993,6.551-7.832,31.641-8.125,43.84-5.62-14.8-5.26-33.491-2.1-36.117-1.235-30.252,9.952-55.886,52.986-51.478,82.889-.569-5.579,2.5-17.587,8.939-29.743a135.816,135.816,0,0,0-.322,34.427c.242-13.216,3.382-29.173,7.341-41.443-3.6,24.258-2.31,39.611,1.5,50.317Z" transform="translate(-447.377 -51.662)" fill="#d92e1f" fill-rule="evenodd"/>
        </g>
        <path id="Path_122" data-name="Path 122" d="M285.043,237.194l-1.283-2.363c-15.592,1.21-28.944-6.513-26.614-27.039-.258,17.011,11.513,25.87,25.34,24.7-4.52-8.319-18.218-36.884-23.184-42.273-1.541-1.672-10.069-4.694-14.076-6.126l-2.64,5.779c-4.517,13.373-9.316,27.49-14.523,40.716,11.7,1.437,20.811-2.515,25.192-14.344-2.057,13.542-15.014,18.239-26.155,16.765q-1.536,3.831-3.12,7.538a110.43,110.43,0,0,0,61.062-3.348ZM271.755,171.05a66.289,66.289,0,0,1,6.137,7.209c4.765,6.858,9.021,13.2,14.477,19.866,4.3,5.252,10.6,12.441,14.975,15.747,4.121-18.017-3.842-33.353-15.079-43.229a21.633,21.633,0,0,1,5.894,3.452l1.984-7.7c-1.461-1.624-14.8-18.317-15.77-19.431-1.522-.079-9.667,1.411-12.718,1.716,4.143,1.446,3.182,2.849,3.249,7.251,2.092,1,5.2-.218,5.358,3.417.066,1.536-1.367,5.121-1.776,6.9-.535,2.33-1.772,2.432-4.657,4.039a7.136,7.136,0,0,1-2.074.77Zm17.07,64.783c-2.676-2.805-22.74-39-26.857-46.486-1.527-2.779-12.983-5.842-14.785-7.472,8.489-1.536,15.4-8.215,19.926-11.514,2.644,1.237,5.339,4.587,7.926,8.4,4.97,7.323,8.624,13.342,14.452,20.183,6.816,8,16.126,17.01,23.425,23.853-6.548,4.406-16.383,10.454-24.089,13.038Zm-38.8-174.366A1.433,1.433,0,1,1,248.6,62.9,1.432,1.432,0,0,1,250.026,61.467Zm-6.44,8.36c3.625,6.768,10.85,3.548,10.057-4.06C251.97,72.362,246.777,72.778,243.586,69.826ZM213.735,81.87a1.26,1.26,0,1,1-1.258,1.26A1.258,1.258,0,0,1,213.735,81.87Zm-2.4,6.345c4.09,6.887,8.292,3.328,5.615-3.826C217.877,91.642,214.49,92.356,211.337,88.215Zm-22.661,14.578c-.395-10.449-.629-19.793,1.054-29.674,1.12,23.066,6.174,32.511,18.724,34.875-5.952-2.75-14.757-20.1-14.466-26.882,2.853,6.332,7.63,16.374,14.863,16.262-13.332-9.343-15.518-38.058-10.888-46.847A54.44,54.44,0,0,0,200.986,69.1q.407-.7.853-1.367a72.273,72.273,0,0,1-2.889-22.3,128.016,128.016,0,0,0,5.086,19.505q.668-.724,1.389-1.372c-1.361-7.4-2.44-11.251-1.046-23.407.88,11.424,2.656,17.881,3.922,21.588.445-.253,1.193-.965,1.657-1.174-.4.4-1.092,1.282-1.481,1.687a35.83,35.83,0,0,0,6.608,11.18c1.978,2.371,7.015,7.622,10.778,8.755C218,75.756,212,57.761,212.76,48.169c.984,2.044,2.424,16.465,8.337,24.672-2.985-10.515-8.047-25.48-7.755-37.84,1.916,2.555.173,22.249,15.389,41.66-3.584-5.677-4.752-15.5-5.56-23.923q-1.147.421-2.283.878,1.105-.767,2.228-1.45c-.252-2.666-.473-5.178-.728-7.355a35.362,35.362,0,0,1,1.745,6.752q1.466-.843,2.955-1.552a154.864,154.864,0,0,0-2.169-16.181c1.576,4.144,3.482,9.76,5.341,14.83q.964-.365,1.934-.678a68.4,68.4,0,0,0-5.3-15.543A135.955,135.955,0,0,1,239.8,46.3a43.667,43.667,0,0,1,7.007-.288c-3.313-9.451-10.514-18.282-16.943-23.835,7.916,5.535,16.409,15.568,22.559,24.384q1.393.218,2.788.515-1.2.026-2.38.074a85.167,85.167,0,0,1,7.433,12.565c1.957-15.358-9.448-30.863-25.419-43.046,20.791,11.721,34.768,35.671,23.382,58.711.833-.541,3.976-5.562,4.63-6.655,1.051,6.033-4.758,16.279-5.985,17.392,6.582-3.482,7.578-11.757,10.194-17.44.259,10.576-.624,14.991-5.222,22.37,16.431-14.966,6.51-42.549.678-56.711,12.661,20.054,13.223,44.837,2.715,61,8.5-4.595,12.021-22.45,12.673-29.854.56,8.867-.683,12.076-2.345,18.716,2.849-5.649,3.585-9.411,3.942-16.021,1.122-20.825-5.336-35.09-21.176-47.955C286.993,36.394,285.359,76.073,302.141,92c-7.162-28.514-15.8-60.726-40.6-78.7,31.446,17.528,38.309,52.953,47.24,70.82-5.434-21.188-4.759-23.941-13.385-43.979C282.285,9.68,250.885-2.927,222.7,6.347c-30.254,9.954-55.887,52.986-51.478,82.89-.569-5.579,2.5-17.587,8.939-29.743a135.786,135.786,0,0,0-.321,34.428c.241-13.215,3.383-29.173,7.341-41.443-3.6,24.258-2.31,39.611,1.5,50.317Zm161.806,70.953c-5.166-2.741-7.032-4.624-11.62-8.5,3.889,6.936,5.477,13.008,3.51,23.435-1.259-10.509-6.886-21.138-14.825-31.4,6.6,13.356,6.752,18.944,4.678,28.888a40.028,40.028,0,0,0-8.5-26.141c-.953,26.7-1.1,32.346-7.939,62.124a112.883,112.883,0,0,1-126.706,5.541c-1.239-.751-2.092-39.028-2.049-46.905-3.036,1.432-15.259,4.053-19.377,4.671-2.1,1.737-7.561,7.117-8.212,11.933-.556-3.7-.88-6.726,1.393-10.655a18.693,18.693,0,0,1-7.82-.7c2.024-.8,9.488-3.266,11.253-4.713,1.147-1.014,14.366-17.352,14.635-17.89-6.939,5.476-25.761,12.459-30.143,21.424,1.819-12.107,7.981-14.293,19.1-22.975-8.264,1.848-16.239,5.175-24.41,1.988,26.6-6.869,45.4-33.646,50.754-58.238-1.178-2.1-1.287-2.4-3.984-7.234-.6,4.1-.172,6.64-.006,9.719-5.124-7.7-7.007-21.282-7.153-25.25-1.658,5.469-2.1,14.237-1.564,21.3-6.807-15.576-4.529-31.439-3.229-37.261C172.829,78.73,172.3,89.8,173,102.386c-13.249-27.085,7.215-73.363,31.414-90.06C239.744-12.05,281.9,1.562,296.988,36.491c8.284,19.179,12.84,49.093,19.893,70.545,7.509,6.126,13.718,10.061,21.3,15.207-4.759.416-15.459-2.087-17.469-4.156.895,3.561,7.685,15.332,9.864,19.156,3.959,2.616,10.153,6.072,14.346,8.247-4.7,1.3-14.579.025-19.951-2.36,4.949,5.294,24.113,20.073,25.517,30.614Zm-117.827-67.9a3.577,3.577,0,0,0,.228.58,1.089,1.089,0,0,0,.227.373c.572.783,1.538,1.13,3.049.93,1.7-.226,2.541-.874,2.478-2.458l.022-.014-.023-.031-.006-.1c-.083-.043-.166-.083-.252-.123a2.184,2.184,0,0,0-.68-.252c-1.858-.552-4.16-.228-5.041,1.1Zm80.4,115.107c7.754-39.094-.051-41.523-23.1-70.8-10.9-13.4-15.789-30.594-19.026-47.752-.535-2.837-.972-6.046-1.273-8.932,2.249-1.731,6.222-7.882,7.382-9.32-.438,28,3.04,45.308,21.777,70.018,2.712,3.575,5.415,7.422,7.915,11.494,11.793,19.211,15.406,29.234,6.325,55.289ZM199.211,74.687q.758-1.413,1.607-2.782c1.466,3.146,3.519,6.333,5.437,6.678a42.107,42.107,0,0,1-2.469-10.3c1.233,2.358,3.681,6.764,6.54,8.478a85.719,85.719,0,0,1-1.735-10.277c3.922,6.237,10.738,17.834,20.833,17.347-4.082-4.15-6.667-8.23-7.715-14.29.987,1.417,4.715,8.432,10.139,9.373-7.822-5.773-2.744-19.932-2.986-27.812,2.2,3.417,3.721,6.149,5.295,8.978a70.475,70.475,0,0,0-.407-10.468q3.076-.7,6.231-1.2c3.393,4.331,6.461,8.7,6.589,9.792-3.558,1.061-9.4,3.708-11.627,5.712,3.1-.053-.722,2.606-1.444,3.805a6.459,6.459,0,0,1,2.331-.774,9.622,9.622,0,0,0-1.217,3.8,4.253,4.253,0,0,1,1.391-1.7l.1,1.182a20.7,20.7,0,0,1,5.051-5.739c-.723,5.091,3.531,11.6,9.5,10.139,3.857-.943,5.643-7.72,2.908-12.991,1.812,1.133,3.659,2.913,3.47,5.659.865-.8,1.129-1.333,1.4-3.058,2.016,4.8-3.082,14.411-4.159,17.744.8-.26,4.333-4.385,5.274-6.206-.129,6.154-5.722,12.442-11.144,14.8,6.725.315,12.932-5.6,15.89-11.037.816,5.721-4.048,13.667-9.466,16.384,5.727.862,10.578-7.054,11.58-7.843-.757,5.441-2.325,6.939-6.451,10.265a22.048,22.048,0,0,0,7.5-2.732c.032,1.378.347,4.209.415,5.579-1.84,3.2-15.518,14.907-19.745,17.905-10.172,7.215-16.242,2.122-26.851-4.039a25.68,25.68,0,0,1-8.13-8.782c-2.492-4.465-3.257-11.5-6.586-15.085a6.973,6.973,0,0,0,2.917.673c-.576-.855-3.269-3.081-.967-8.382.8,4.381,4.579,10.561,8.34,9.215,2.776-.994,1.991-8.87-.884-10.994a6.8,6.8,0,0,1,1.16-.14c-2.528-3.969-12.192-3.061-13.29,5.286-3.139-6.331-4.157-8.652-4.631-12.161Zm2.365-3.971q.389-.594.8-1.18a70.048,70.048,0,0,0,2.353,7.048A19.891,19.891,0,0,1,201.576,70.716Zm3.079-4.247q.58-.73,1.186-1.448c.98,3.368,1.572,5.6,2.662,8.831A45.173,45.173,0,0,1,204.655,66.469Zm-4.449,4.073a27.706,27.706,0,0,0-1.16,2.65c-.152-1.681-.244-3.707-.4-6.491C199.02,67.648,199.555,69.039,200.206,70.542Zm24.063-18.2q1.432-.5,2.884-.956a86.34,86.34,0,0,1-.871,15.688C225.87,64.022,225.209,57.721,224.27,52.341Zm6.6-2.025q.849-.225,1.707-.433a31.491,31.491,0,0,1,.647,6.323C232.479,54.508,231.683,52.487,230.87,50.317ZM241.353,48.2q2.933-.425,5.936-.689a28.393,28.393,0,0,1,1.286,10.533c-.478-1.195-3.45-5.215-7.222-9.844Zm-2.892-1.705a41.091,41.091,0,0,0-4.984,1.1,54.1,54.1,0,0,0-2.128-8.828C232.511,39.469,235.463,42.78,238.46,46.491ZM213.824,78.362c-3.294-.252-5.067-.459-8.635,1.466C207.091,77.429,211.326,76.67,213.824,78.362Zm133.365,91.6c-8.5-12.785-30.6-29.571-41.523-41.742C311.444,141.2,337.535,161.462,347.189,169.959Zm-7.666-25.8c-13.81-.767-31.79-16.275-43.08-24.687,1.552,4.195,10.293,17.67,12.72,19.885-5.86-1.516-12.642-15.876-15.362-22.261-5.89-4.085-12.642-19.892-12.528-28.745.547,4.6,5.381,19.4,10.235,23.364a78.765,78.765,0,0,1-7.168-29.561c2.587,12,6.745,27.881,11.433,33.752,1.632,2.044,9.3,8.8,11.7,9.651-8.008-9.85-18.847-25.94-20.07-38.846,1.916,1.208,29.442,37.324,30.334,40.866-8.293-4.185-20.6-27.515-27.611-34.866,1.378,5.973,10.725,18.741,14.835,24.58,9.4,13.358,19.256,20.481,34.566,26.868Zm-8.059-24.231c-17.112-10.708-35.249-25.877-43.875-47.046a15.674,15.674,0,0,1-1.47,7.275c5.726,9.766,18.98,29.594,45.345,39.772Zm-175.245,65.9c33.959-7.337,64.888-27.161,63.612-67.813,3.8,13.132-3.02,34.44-14.777,48.013C193.336,179.548,172.519,183.244,156.219,185.822Zm40.031-77.829c-2.332,14.976-6.254,23.512-11.962,32.2,10.042-10.723,10.918-14.5,17.08-27.436-6.095,21.156-25.316,49.522-49.2,50.539,16.216-6.9,35.209-21.05,44.086-55.3ZM251.5,75.858c-1.225.919-5.844,10.755-5.036,11.862Zm3.09-1.761c-.97,2.292-4.8,10.7-4.9,12.515C251.454,84.139,254.759,75.941,254.587,74.1Zm-21.761-9.592c1.168-.848,1.024-2.852,10.261-6.487-3.427-.275-9.113,2.975-10.261,6.487Zm-19.32,38.569c.682-2.4,1.6-4.017,2.739-7.674C215.043,96.095,213.43,101.169,213.506,103.074Zm4.271-1.865c.767-.992,1.868-5.611,1.765-7.3C218.848,95.145,217.936,99.6,217.777,101.209Zm-2.206,1.148a29.126,29.126,0,0,0,2.554-8.4A31.032,31.032,0,0,0,215.572,102.357Zm24-13.9c1.05-.645,5.421-8.787,5.133-10.508-1.049,1.439-4.77,8.613-5.133,10.508Zm2.874.272c1.238-.619,5.928-11.44,5.85-12.25C247.245,77.989,242.9,86.626,242.444,88.734ZM202.549,211.15c-7.174-12.7,2.376-32,14.629-39.834,1.471.442,5.724,2.866,6.537,4.005-2.176,5.111-17.4,32.323-21.166,35.829Zm108.748,5.6-2.127-1.381c2.7-16.563.183-24.257-8-38.077a74.343,74.343,0,0,0,.407-9.161c12.516,13.131,15.154,31.534,9.718,48.62ZM189.629,179.57c9.426-3.527,17.6-11.921,22.88-19.266-.53,1.8-.349,10.662-.294,12.482-13.174,12.134-17.113,27.969-11.4,40.272-3.645,4.99-10.035,11.312-10.17,11.142-.05-1.44-1.245-39.685-1.011-44.63Zm-37.681-1.093c5.282-9.354,25.619-18.661,34.411-28-3.135,11.233-27.01,21.1-34.411,28Zm89.7-27.8c-.716,1.552-7.89,7.646-11.906,13a39.2,39.2,0,0,0-4.858,9.189c-5.036-3.015-6.793-2.959-8.078-4.639-.868-1.133-1.548-2.621.478-3.032,2.719-.55,6.2.6,7.522-1.9-1.843.315-2.81.472-4.554-.433-.876-.455-3.935-3.736.6-3.952,2.177-.1,5.063-.092,6.9-.873-1.7-.793-7.6-1.107-6.877-4.369.4-1.832,2.433-1.517,4.251-1.559,3.527-.082,7.928.013,8.914-.951-3.492-.533-3.9-.766-6.341-2.228a3.151,3.151,0,0,1-.613,1.688c-.69-.337-1.616-.486-1.828-.628a12.7,12.7,0,0,1,1.292-3.869c1.247-2.316,2.153-1.793,4.228-.759,2.259,1.125,9.9,4.262,10.871,5.322Zm-49.7,77.5c11.23-9.9,25.328-34.241,32.191-47.966,1.615-3.229,5.254-11.617,6.411-13.552,2.05-3.426,15.713-17.033,19.275-20.658,2.156-2.2,2.1-1.7,4.864-2.4,2.442-.621,5.889-1.587,8.211-2.087,2.041-.439,2.968-.459,3.5,1.851.394,1.705,1.1,3.641,1.178,4.566-3.811-.454-3.362-1.85-3.222-2.957-1.789.24-3.221.7-4.895.958a7.744,7.744,0,0,0-3.895,1.431,7.273,7.273,0,0,1,4.616-.228c1.475.425,7.127,2.159,10.307,3.339,1.712.634,2.593.472,2.052,3.271A23.538,23.538,0,0,0,264.7,152.5c6.984,1.708,8.106,1.359,7.837,4.343a45.187,45.187,0,0,0-4.651-.472c2.495,1.112,5.746,1.464,8.336,1.931,1.971.354,2.009.587,1.7,2.483a20.222,20.222,0,0,1-.9,3.758,4.482,4.482,0,0,1-1.88,2.628,16.448,16.448,0,0,1-4.1,2.446c.068-3.239,3.017-5.435,4.758-6.8-.712-.447-1.729.15-3.105.56-6.489,1.93-9.085,7.211-17.561,11.852-13.41,7.343-10.386-.573-16.611,16.749-5.942,16.536-11.2,33.13-18.378,48.288-5.325-1.132-24-9.308-28.208-12.088Zm101.174-85.918c31.785-7.944,29.542,22.812,26.51,47.089-3.743-20.505-14.392-29.282-26.51-47.089Zm-79,24.114a21.625,21.625,0,0,1,.9-10.759c3.889-9.212,5.921-14.744,7.426-24.622,1.494-.148,21.827,12.6,24.641,14.252a50.94,50.94,0,0,1-3.567,3.713c-3.921-1.885-7.855-3.149-11.907-5.141-2.869-1.41-4.7-2.3-5.7-.733a20.743,20.743,0,0,0-2.325,6.613c-3.968.6-5.779,3.376-3.994,6.759-4.091,2.053-3.628,4.881-2.177,6.585-2.627.928-3.066,1.789-3.3,3.333Zm25.192-28.4c.585-3.765.648-4.4.141-10.146,9.2,2.774,23.883-14.115,29.507-21.024,3.322,12.038,5.14,23.84,14.382,38.93a96.49,96.49,0,0,0-13.636,2.347c-.659-1.8-1-4.846-1.927-6.872-.793-1.735-2.372-2.75-6.338-1.716-2.519.657-5,1.334-7.447,1.979-4.415,1.164-3.283.834-6.043,2.95-1.356-1.194-6.965-5.188-8.64-6.448Zm-49.968,32.61c-.672-5.726.853-24.577,2.5-29.5,2.665-7.988,7.687-15.436,17.744-15.129,2.7.082,6.984,1.824,7.94,3.037C216.814,143.157,202.03,165.452,189.337,170.584ZM300.55,138.572l-1.9.053c-1.11-4.022-7.943-14.326-7.96-22.341,3.173,8.514,5.794,13.619,9.863,22.288Zm16.355-21.9c1.576,2.794,6.593,13.761,9.569,18.531-2.636-2.256-14.41-20.877-16.624-24.693,1.37,1.638,5.277,4.524,7.055,6.163ZM206.949,123.7c.634-2.315,2.989-6.442,3.547-8.678C210.372,116.877,208.982,123.532,206.949,123.7Zm84.221,15.8c-6.5-14.252-11.208-30.487-11.134-46.552C281.312,100.13,291.169,139.356,291.169,139.5Zm-78.735-38.412,2.071-5.514C213.722,96.024,212.063,100.192,212.435,101.084ZM296.44,63.492c4.188,5.79,13.858,26.752,17.007,40.726l-7.718-7.487c-1.123-5.33-6.056-24.776-9.288-33.239ZM278.505,85.65c-.537-5.785,1.938-7.242,3-8.905,1.537-2.4-1.1-.46-.906-3.762.111-1.846.333-4.7.44-4.862a4.846,4.846,0,0,1,2.2,3.814c1.205-2.857-2.712-5.935-2.332-8.6,2.446.145,4.961,5.517,5,9.068.063,5.064-3.591,10.2-7.412,13.253ZM251.2,58.065c-.086-2.785.391-5.546-.86-9.708,1.6.818,5.676,9.666,5.917,10.673a15.067,15.067,0,0,0-5.057-.966Z" transform="translate(-130.577 0.024)" fill-rule="evenodd"/>
        <path id="Path_123" data-name="Path 123" d="M153.355,231.07a116.32,116.32,0,1,1-98.463,11.569L49.268,253.82a110.3,110.3,0,1,0,110.03-14.1l-5.515-8.286-.426-.361Z" transform="translate(-0.01 -210.33)"/>
      </g>
    </g>
    <path id="Path_124" data-name="Path 124" d="M89.109,58.912q5.341,1.853,8.556,3.161a56.611,56.611,0,0,1,6.976,3.488,23.087,23.087,0,0,1,5.777,4.469,20.278,20.278,0,0,1,3.434,5.723,19.673,19.673,0,0,1,1.417,7.576,21.1,21.1,0,0,1-7.739,16.895q-7.848,6.867-21.691,6.867a43.619,43.619,0,0,1-21.691-5.559l-2.18,5.45H58.153l-.545-27.468h4.578A24.74,24.74,0,0,0,69.162,95.59q6.213,6.268,16.895,6.268,8.284,0,13.026-3.215a10.564,10.564,0,0,0,4.742-9.32A10.9,10.9,0,0,0,99.3,80q-4.524-3.324-15.859-7.357-3.924-1.308-5.614-1.962t-4.96-2.017a28.809,28.809,0,0,1-4.8-2.4q-1.526-1.036-3.706-2.78A12.148,12.148,0,0,1,61.2,59.947,23.443,23.443,0,0,1,59.461,55.7a18.1,18.1,0,0,1-.763-5.4q0-9.483,6.758-15.151,7.412-6.431,20.274-6.431,11.772,0,20.492,4.9l1.853-4.9h3.815l.436,24.634h-4.578Q105.9,33.842,86.493,33.842q-7.63,0-12.1,2.943a9,9,0,0,0-4.469,7.848,8.171,8.171,0,0,0,.981,3.979,13.253,13.253,0,0,0,2.235,3.052,15.682,15.682,0,0,0,4.251,2.67q3,1.417,5.069,2.18T89.109,58.912ZM165.3,89.541l4.469,1.962q-6.322,15.587-23.98,15.587-11.881,0-19.13-7.739t-7.248-20.492q0-12.971,7.412-20.6t19.075-7.63q11.009,0,16.95,6.376t5.94,17.386v2.4H133.036v2.071q0,10.464,4.251,16.132a13.892,13.892,0,0,0,11.772,5.668,16.151,16.151,0,0,0,10.028-3.215A18.987,18.987,0,0,0,165.3,89.541Zm-19.729-33.79q-10.246,0-12.208,16.023H155.6q-.218-7.63-2.4-11.827T145.571,55.751Zm73.575,33.79,4.469,1.962q-6.54,15.587-23.762,15.587-11.99,0-19.293-7.739t-7.3-20.492q0-12.971,7.957-20.6t20.383-7.63q9.047,0,15.206,4.251t6.158,11.227a8.9,8.9,0,0,1-2.016,6.1,6.959,6.959,0,0,1-5.5,2.289,6.6,6.6,0,0,1-5.014-2.071,7.6,7.6,0,0,1-1.962-5.45q0-3.6,2.834-8.829a18.153,18.153,0,0,0-9.265-2.4,12.694,12.694,0,0,0-11.227,5.886q-3.924,5.886-3.924,17.222,0,10.464,4.251,16.132a13.892,13.892,0,0,0,11.772,5.668,16.151,16.151,0,0,0,10.028-3.215A18.987,18.987,0,0,0,219.146,89.541Zm45.562-38.913a11.432,11.432,0,0,1,8.284,2.943,10.4,10.4,0,0,1,3.052,7.848,9.763,9.763,0,0,1-2.071,6.431,6.839,6.839,0,0,1-5.559,2.507,6.353,6.353,0,0,1-4.96-2.125,8.415,8.415,0,0,1-1.908-5.832,9.629,9.629,0,0,1,1.635-5.559q-10.246.872-16.568,16.023V92.593q0,5.777,1.253,7.412t7.249,1.853V106H226.122v-4.142q5.341-.218,6.486-1.853t1.145-7.412V66a34.468,34.468,0,0,0-.163-3.924,11.664,11.664,0,0,0-.872-3,4.119,4.119,0,0,0-2.616-2.343,12.769,12.769,0,0,0-4.96-.436V52.154l19.729-1.526,1.417,1.526-.545,12.862a29.342,29.342,0,0,1,8.447-10.573A17.279,17.279,0,0,1,264.708,50.628Zm57.116,38.913,4.469,1.962q-6.322,15.587-23.98,15.587-11.881,0-19.13-7.739t-7.249-20.492q0-12.971,7.412-20.6t19.075-7.63q11.009,0,16.949,6.376t5.94,17.386v2.4H289.56v2.071q0,10.464,4.251,16.132a13.892,13.892,0,0,0,11.772,5.668,16.151,16.151,0,0,0,10.028-3.215A18.987,18.987,0,0,0,321.824,89.541ZM302.1,55.751q-10.246,0-12.208,16.023h22.236q-.218-7.63-2.4-11.827T302.1,55.751Zm60.931.872-14.17.436V91.83q0,6.1,3.543,7.684t10.628-.163v4.36a28.275,28.275,0,0,1-13.08,3.379q-8.066,0-11.445-4.9-2.4-3.488-2.4-10.028V56.623h-8.72v-4.9q8.175-.872,12.044-4.523t5.069-14.77h4.36V51.282l14.17.436ZM451.1,29.7h28.013v4.578q-7.194.436-9.428,2.453t-4.414,8.447l-21.146,61.476h-8.066L419.379,57.277l-17.222,49.377h-8.066L373.272,45.178q-2.289-6.54-4.523-8.5t-9.21-2.4V29.7h40.548v4.578a19.261,19.261,0,0,0-4.687.818,8.794,8.794,0,0,0-2.561,1.253,2.659,2.659,0,0,0-.763,2.289,13.3,13.3,0,0,0,.327,2.725q.273,1.09,1.145,3.815l8.5,26.7,2.507,8.611L416,47.467l-.763-2.289q-2.18-6.431-4.033-8.447t-7.085-2.453V29.7h39.567v4.578q-1.962.109-3.379.327t-2.562.436a3.6,3.6,0,0,0-1.8.817,9.865,9.865,0,0,1-1.145.926,1.517,1.517,0,0,0-.545,1.254q-.054.926-.109,1.363a6.027,6.027,0,0,0,.272,1.744q.327,1.308.491,1.853t.708,2.18l8.5,26.814,2.4,8.066L458.4,45.287q2.616-5.886,1.471-8.229t-8.775-2.78Zm68.343,62.239q0,5.014,1.8,6.7t5.94,1.689v4.251a36.692,36.692,0,0,1-11.554,2.071q-7.3,0-10.573-4.251a10.672,10.672,0,0,1-2.18-5.123q-5.668,9.81-18.966,9.81-7.085,0-11.173-3.869a13.383,13.383,0,0,1-4.087-10.191q0-6.976,4.9-10.791a31.241,31.241,0,0,1,10.845-5.5,153.7,153.7,0,0,1,17.495-4.088v-4.9q0-11.336-9.592-11.336a19.257,19.257,0,0,0-7.63,1.744,16.716,16.716,0,0,1,1.853,7.3,6.479,6.479,0,0,1-2.344,5.232,8.616,8.616,0,0,1-5.723,1.962,6.6,6.6,0,0,1-5.341-2.343,8.461,8.461,0,0,1-1.962-5.614q0-6.431,7.521-10.246a37.8,37.8,0,0,1,17.331-3.815A34.608,34.608,0,0,1,506.2,51.99a20.154,20.154,0,0,1,6.867,3.379,16.326,16.326,0,0,1,3.979,4.8,17.6,17.6,0,0,1,1.962,5.068,25,25,0,0,1,.436,4.687Zm-27.25,5.668a8.031,8.031,0,0,0,7.085-3.761,17.467,17.467,0,0,0,2.616-9.537V77.987q-8.066,2.18-11.009,4.251a8.936,8.936,0,0,0-4.251,7.848Q486.632,97.607,492.191,97.607ZM561.3,106H528.6v-4.36q5.341-.436,6.431-2.017t1.09-7.248V66.106a35.8,35.8,0,0,0-.164-4.033,10.282,10.282,0,0,0-.872-2.889,3.655,3.655,0,0,0-2.561-2.071,13.963,13.963,0,0,0-4.905-.164V52.481l25.07-1.853,1.853,1.853-.763,14.279V92.375q0,5.668,1.09,7.248t6.431,2.017Zm37.5-83.494q7.194,0,10.9,2.888a8.94,8.94,0,0,1,3.706,7.357,7.043,7.043,0,0,1-2.289,5.4,7.873,7.873,0,0,1-5.559,2.125q-8.5,0-10.682-13.3-7.412,1.417-7.412,18.53v5.777l14.824.436V56.95l-14.824.436V92.375a39.8,39.8,0,0,0,.164,4.414,5.5,5.5,0,0,0,1.145,2.562,4.6,4.6,0,0,0,2.943,1.689,46.527,46.527,0,0,0,5.777.6V106H562.169v-4.36q5.341-.436,6.431-2.017t1.09-7.248V56.95h-9.265V51.718h9.265V49.865a25.4,25.4,0,0,1,8.556-19.511A29.335,29.335,0,0,1,598.793,22.506Zm62.675,68.343a37.385,37.385,0,0,0,.164,4.088,13.645,13.645,0,0,0,.818,3.106,4.543,4.543,0,0,0,2.289,2.562,12.265,12.265,0,0,0,4.469,1.035V106l-22.018.436-1.853-1.853-.327-12.535q-7.085,15.042-21.037,15.042-7.3,0-11.663-4.523T607.949,89V65.343q0-5.668-1.09-7.249t-6.431-2.017v-4.36h25.724L625.716,67.3V87.688q0,9.374,6.322,9.374,6.976,0,11.663-12.426V65.343q0-5.668-.981-7.249t-5.886-2.017v-4.36H661.9l-.436,15.26Z" transform="translate(645 385)" fill="#fff"/>
    <g id="Layer_1" data-name="Layer 1" transform="translate(1176.806 402.754)">
      <path id="Path_34" data-name="Path 34" d="M12.406,3.1A6.953,6.953,0,0,0,6.592,0,6.625,6.625,0,0,0,.437,4.348C-2.2,11.114,7.838,19.932,12.43,21.813c4.592-1.881,14.631-10.7,11.993-17.465A6.682,6.682,0,0,0,18.243,0a7.042,7.042,0,0,0-5.838,3.1" transform="translate(0 0)" fill="#f60" fill-rule="evenodd"/>
    </g>
  </g>
</svg>
